<svg xmlns="http://www.w3.org/2000/svg" xmlns:xlink="http://www.w3.org/1999/xlink" viewBox="0 0 291.69 291.69"><defs><style>.cls-1{fill:url(#Degradado_sin_nombre_13);}.cls-2{fill:#fff;fill-rule:evenodd;}</style><linearGradient id="Degradado_sin_nombre_13" x1="145.84" x2="145.84" y2="291.69" gradientUnits="userSpaceOnUse"><stop offset="0" stop-color="#4ac14b"/><stop offset="1" stop-color="#06853a"/></linearGradient></defs><g id="Layer_2" data-name="Layer 2"><g id="OBJECTS"><rect class="cls-1" width="291.69" height="291.69" rx="48.19"/><path class="cls-2" d="M245.29,143.29c0,53.5-43.71,96.88-97.63,96.88a97.74,97.74,0,0,1-47.2-12.06L46.4,245.29l17.62-52a95.86,95.86,0,0,1-14-50C50,89.78,93.73,46.4,147.66,46.4s97.63,43.38,97.63,96.89ZM147.66,61.83c-45.28,0-82.1,36.54-82.1,81.46A80.65,80.65,0,0,0,81.2,191.05L71,221.29l31.54-10a82.09,82.09,0,0,0,45.17,13.46c45.25,0,82.08-36.53,82.08-81.44s-36.83-81.46-82.08-81.46ZM197,165.6c-.61-1-2.2-1.58-4.59-2.77s-14.16-6.94-16.36-7.73-3.79-1.18-5.38,1.19-6.18,7.73-7.58,9.31-2.79,1.78-5.18.59-10.12-3.7-19.25-11.78A72.23,72.23,0,0,1,125.3,138c-1.39-2.38-.14-3.66,1-4.85s2.39-2.77,3.59-4.15a16,16,0,0,0,2.39-4,4.33,4.33,0,0,0-.2-4.16c-.59-1.18-5.38-12.87-7.38-17.63s-4-4.57-5.39-4.57a33.91,33.91,0,0,0-4,.42s-4.8.59-7,3-8.37,8.12-8.37,19.8,8.57,23,9.76,24.55,16.56,26.35,40.89,35.86,24.33,6.34,28.72,5.93,14.16-5.74,16.16-11.28,2-10.31,1.4-11.29Z"/></g></g></svg>